<svg width="current" height="current" viewBox="0 0 49 50" fill="none" xmlns="http://www.w3.org/2000/svg">
<path d="M42.875 33.3333V16.6667C42.8743 15.936 42.6852 15.2184 42.3269 14.5858C41.9685 13.9532 41.4535 13.4278 40.8333 13.0625L26.5417 4.72916C25.9209 4.36346 25.2168 4.17094 24.5 4.17094C23.7832 4.17094 23.0791 4.36346 22.4583 4.72916L8.16667 13.0625C7.54654 13.4278 7.03146 13.9532 6.67311 14.5858C6.31476 15.2184 6.12573 15.936 6.125 16.6667V33.3333C6.12573 34.064 6.31476 34.7816 6.67311 35.4142C7.03146 36.0468 7.54654 36.5722 8.16667 36.9375L22.4583 45.2708C23.0791 45.6365 23.7832 45.8291 24.5 45.8291C25.2168 45.8291 25.9209 45.6365 26.5417 45.2708L40.8333 36.9375C41.4535 36.5722 41.9685 36.0468 42.3269 35.4142C42.6852 34.7816 42.8743 34.064 42.875 33.3333Z" stroke="#3B3B3B" stroke-width="2" stroke-linecap="round" stroke-linejoin="round"/>
<path d="M15.3125 8.77084L24.5 14.1875L33.6875 8.77084" stroke="#3B3B3B" stroke-width="2" stroke-linecap="round" stroke-linejoin="round"/>
<path d="M15.3125 41.2292V30.4167L6.125 25" stroke="#3B3B3B" stroke-width="2" stroke-linecap="round" stroke-linejoin="round"/>
<path d="M42.875 25L33.6875 30.4167V41.2292" stroke="#3B3B3B" stroke-width="2" stroke-linecap="round" stroke-linejoin="round"/>
<path d="M6.67624 14.5L24.5 25.0208L42.3237 14.5" stroke="#3B3B3B" stroke-width="2" stroke-linecap="round" stroke-linejoin="round"/>
<path d="M24.5 46V25" stroke="#3B3B3B" stroke-width="2" stroke-linecap="round" stroke-linejoin="round"/>
</svg>
