<svg width="current" height="current" viewBox="0 0 157 47" fill="none" xmlns="http://www.w3.org/2000/svg">
<path d="M7.86875 46C5.72292 46 4.0875 45.7292 2.9625 45.1875C1.85833 44.6458 1.10833 43.7604 0.712502 42.5312C0.337502 41.3021 0.150002 39.6667 0.150002 37.625V6.1875C0.150002 5.58333 0.254168 5.125 0.462502 4.8125C1.4 3.4375 2.7125 1.98958 4.4 0.46875C4.7125 0.21875 4.98333 0.09375 5.2125 0.09375C5.4625 0.09375 5.72292 0.21875 5.99375 0.46875C6.91042 1.26042 7.68125 2.02083 8.30625 2.75C8.93125 3.45833 9.47292 4.14583 9.93125 4.8125C10.1396 5.14583 10.2438 5.60417 10.2438 6.1875V33.9062C10.2438 35.3021 10.4938 36.3021 10.9938 36.9062C11.4938 37.5104 12.4313 37.8125 13.8063 37.8125L23.4 37.7812C23.9 37.7812 24.275 37.8646 24.525 38.0312C25.0667 38.4062 25.6292 38.8542 26.2125 39.375C26.7958 39.8958 27.4104 40.5208 28.0563 41.25C28.2646 41.5208 28.3688 41.7396 28.3688 41.9062C28.3688 42.0938 28.2646 42.3021 28.0563 42.5312C27.4104 43.2604 26.7958 43.8854 26.2125 44.4062C25.6292 44.9271 25.0667 45.375 24.525 45.75C24.2333 45.9167 23.8583 46 23.4 46H7.86875ZM44.1375 46.7812C38.8875 46.7812 34.7313 45.3854 31.6688 42.5938C28.6063 39.8021 27.075 35.6458 27.075 30.125C27.075 24.4583 28.6583 20.2292 31.825 17.4375C35.0125 14.625 39.2625 13.2188 44.575 13.2188C49.7 13.2188 53.8042 14.6042 56.8875 17.375C59.9708 20.125 61.5125 24.1875 61.5125 29.5625C61.5125 35.1667 59.9708 39.4375 56.8875 42.375C53.8042 45.3125 49.5542 46.7812 44.1375 46.7812ZM44.45 39.2188C46.7417 39.2188 48.4708 38.5104 49.6375 37.0938C50.8042 35.6562 51.3875 33.2083 51.3875 29.75C51.3875 26.4583 50.7938 24.1458 49.6063 22.8125C48.4396 21.4583 46.7 20.7812 44.3875 20.7812C42.1583 20.7812 40.3979 21.5104 39.1063 22.9688C37.8354 24.4062 37.2 26.75 37.2 30C37.2 33.3958 37.8042 35.7812 39.0125 37.1562C40.2417 38.5312 42.0542 39.2188 44.45 39.2188ZM80.375 46.7812C75.125 46.7812 70.9688 45.3854 67.9062 42.5938C64.8438 39.8021 63.3125 35.6458 63.3125 30.125C63.3125 24.4583 64.8958 20.2292 68.0625 17.4375C71.25 14.625 75.5 13.2188 80.8125 13.2188C85.9375 13.2188 90.0417 14.6042 93.125 17.375C96.2083 20.125 97.75 24.1875 97.75 29.5625C97.75 35.1667 96.2083 39.4375 93.125 42.375C90.0417 45.3125 85.7917 46.7812 80.375 46.7812ZM80.6875 39.2188C82.9792 39.2188 84.7083 38.5104 85.875 37.0938C87.0417 35.6562 87.625 33.2083 87.625 29.75C87.625 26.4583 87.0312 24.1458 85.8438 22.8125C84.6771 21.4583 82.9375 20.7812 80.625 20.7812C78.3958 20.7812 76.6354 21.5104 75.3438 22.9688C74.0729 24.4062 73.4375 26.75 73.4375 30C73.4375 33.3958 74.0417 35.7812 75.25 37.1562C76.4792 38.5312 78.2917 39.2188 80.6875 39.2188ZM110.175 46.7812C107.946 46.7812 106.092 46.5938 104.613 46.2188C103.154 45.8438 101.977 45.3958 101.081 44.875C100.206 44.3333 99.5188 43.8438 99.0188 43.4062C98.6438 43.0521 98.6021 42.6562 98.8938 42.2188L102.081 37.5C102.54 36.8333 103.06 36.7917 103.644 37.375C104.248 37.9583 105.06 38.5312 106.081 39.0938C107.123 39.6354 108.415 39.9062 109.956 39.9062C111.331 39.9062 112.456 39.6771 113.331 39.2188C114.227 38.7396 114.675 38.0521 114.675 37.1562C114.675 36.5312 114.477 36.0208 114.081 35.625C113.685 35.2292 112.988 34.8229 111.988 34.4062C110.988 33.9896 109.592 33.4583 107.8 32.8125C105.154 31.8542 103.154 30.6979 101.8 29.3438C100.446 27.9896 99.7688 26.0104 99.7688 23.4062C99.7688 21.0104 100.425 19.0625 101.738 17.5625C103.071 16.0625 104.769 14.9688 106.831 14.2812C108.915 13.5729 111.081 13.2188 113.331 13.2188C116.185 13.2188 118.185 13.4896 119.331 14.0312C120.498 14.5521 121.248 14.9583 121.581 15.25C121.894 15.5208 122.113 15.8333 122.238 16.1875C122.508 17 122.717 18.0729 122.863 19.4062C122.946 20.1771 122.748 20.6875 122.269 20.9375C122.019 21.0833 121.623 21.2396 121.081 21.4062C120.54 21.5729 119.998 21.7188 119.456 21.8438C118.915 21.9688 118.508 22.0312 118.238 22.0312C118.154 22.0312 118.06 22.0104 117.956 21.9688C117.873 21.9062 117.717 21.7708 117.488 21.5625C117.217 21.2917 116.748 20.9792 116.081 20.625C115.435 20.2708 114.54 20.0938 113.394 20.0938C112.269 20.0938 111.321 20.2812 110.55 20.6562C109.8 21.0104 109.425 21.6458 109.425 22.5625C109.425 23.5625 109.904 24.3125 110.863 24.8125C111.842 25.3125 113.446 25.9583 115.675 26.75C117.425 27.3542 118.946 28.0208 120.238 28.75C121.55 29.4583 122.56 30.3958 123.269 31.5625C123.977 32.7083 124.331 34.2604 124.331 36.2188C124.331 38.7604 123.633 40.8125 122.238 42.375C120.863 43.9167 119.092 45.0417 116.925 45.75C114.779 46.4375 112.529 46.7812 110.175 46.7812ZM142.944 46.7812C139.423 46.7812 136.36 46.2188 133.756 45.0938C131.152 43.9479 129.131 42.1771 127.694 39.7812C126.256 37.3854 125.538 34.2917 125.538 30.5C125.538 24.8125 126.996 20.5104 129.913 17.5938C132.829 14.6771 136.704 13.2188 141.538 13.2188C144.683 13.2188 147.34 13.7812 149.506 14.9062C151.694 16.0312 153.35 17.5833 154.475 19.5625C155.621 21.5417 156.194 23.8021 156.194 26.3438C156.194 28.8229 155.558 30.5521 154.288 31.5312C153.017 32.5104 151.163 33 148.725 33H135.319C135.485 35.1458 136.267 36.7812 137.663 37.9062C139.079 39.0312 140.996 39.5938 143.413 39.5938C145.329 39.5938 146.86 39.3125 148.006 38.75C149.173 38.1667 149.985 37.7083 150.444 37.375C150.84 37.0833 151.288 36.9479 151.788 36.9688C152.183 36.9688 152.746 37.0521 153.475 37.2188C154.225 37.3646 154.965 37.6458 155.694 38.0625C156.215 38.3333 156.475 38.7083 156.475 39.1875C156.475 39.4583 156.423 39.8438 156.319 40.3438C156.256 40.6354 156.152 41.0625 156.006 41.625C155.86 42.1667 155.673 42.6771 155.444 43.1562C155.319 43.3854 155.121 43.6042 154.85 43.8125C154.433 44.1042 153.756 44.4896 152.819 44.9688C151.902 45.4479 150.642 45.8646 149.038 46.2188C147.433 46.5938 145.402 46.7812 142.944 46.7812ZM135.256 26.5938H145.444C146.506 26.5938 147.038 26.1042 147.038 25.125C147.038 23.6458 146.569 22.4062 145.631 21.4062C144.715 20.3854 143.329 19.875 141.475 19.875C139.454 19.875 137.965 20.5208 137.006 21.8125C136.069 23.1042 135.485 24.6979 135.256 26.5938Z" fill="#999999"/>
</svg>
