<svg width="121" height="47" viewBox="0 0 121 47" fill="none" xmlns="http://www.w3.org/2000/svg">
<path d="M7.9875 46C5.84167 46 4.20625 45.7292 3.08125 45.1875C1.97708 44.6458 1.22708 43.7604 0.831249 42.5312C0.456249 41.3021 0.268749 39.6667 0.268749 37.625V6.1875C0.268749 5.58333 0.372916 5.125 0.581249 4.8125C1.51875 3.4375 2.83125 1.98958 4.51875 0.46875C4.83125 0.21875 5.10208 0.09375 5.33125 0.09375C5.58125 0.09375 5.84167 0.21875 6.1125 0.46875C7.02917 1.26042 7.8 2.02083 8.425 2.75C9.05 3.45833 9.59167 4.14583 10.05 4.8125C10.2583 5.14583 10.3625 5.60417 10.3625 6.1875V33.9062C10.3625 35.3021 10.6125 36.3021 11.1125 36.9062C11.6125 37.5104 12.55 37.8125 13.925 37.8125L23.5187 37.7812C24.0187 37.7812 24.3937 37.8646 24.6437 38.0312C25.1854 38.4062 25.7479 38.8542 26.3312 39.375C26.9146 39.8958 27.5292 40.5208 28.175 41.25C28.3833 41.5208 28.4875 41.7396 28.4875 41.9062C28.4875 42.0938 28.3833 42.3021 28.175 42.5312C27.5292 43.2604 26.9146 43.8854 26.3312 44.4062C25.7479 44.9271 25.1854 45.375 24.6437 45.75C24.3521 45.9167 23.9771 46 23.5187 46H7.9875ZM44.2562 46.7812C39.0062 46.7812 34.85 45.3854 31.7875 42.5938C28.725 39.8021 27.1937 35.6458 27.1937 30.125C27.1937 24.4583 28.7771 20.2292 31.9437 17.4375C35.1312 14.625 39.3812 13.2188 44.6937 13.2188C49.8187 13.2188 53.9229 14.6042 57.0062 17.375C60.0896 20.125 61.6312 24.1875 61.6312 29.5625C61.6312 35.1667 60.0896 39.4375 57.0062 42.375C53.9229 45.3125 49.6729 46.7812 44.2562 46.7812ZM44.5687 39.2188C46.8604 39.2188 48.5896 38.5104 49.7562 37.0938C50.9229 35.6562 51.5062 33.2083 51.5062 29.75C51.5062 26.4583 50.9125 24.1458 49.725 22.8125C48.5583 21.4583 46.8187 20.7812 44.5062 20.7812C42.2771 20.7812 40.5167 21.5104 39.225 22.9688C37.9542 24.4062 37.3187 26.75 37.3187 30C37.3187 33.3958 37.9229 35.7812 39.1312 37.1562C40.3604 38.5312 42.1729 39.2188 44.5687 39.2188ZM74.0562 46.7812C71.8271 46.7812 69.9729 46.5938 68.4937 46.2188C67.0354 45.8438 65.8583 45.3958 64.9625 44.875C64.0875 44.3333 63.4 43.8438 62.9 43.4062C62.525 43.0521 62.4833 42.6562 62.775 42.2188L65.9625 37.5C66.4208 36.8333 66.9417 36.7917 67.525 37.375C68.1292 37.9583 68.9417 38.5312 69.9625 39.0938C71.0042 39.6354 72.2958 39.9062 73.8375 39.9062C75.2125 39.9062 76.3375 39.6771 77.2125 39.2188C78.1083 38.7396 78.5562 38.0521 78.5562 37.1562C78.5562 36.5312 78.3583 36.0208 77.9625 35.625C77.5667 35.2292 76.8687 34.8229 75.8687 34.4062C74.8687 33.9896 73.4729 33.4583 71.6812 32.8125C69.0354 31.8542 67.0354 30.6979 65.6812 29.3438C64.3271 27.9896 63.65 26.0104 63.65 23.4062C63.65 21.0104 64.3062 19.0625 65.6187 17.5625C66.9521 16.0625 68.65 14.9688 70.7125 14.2812C72.7958 13.5729 74.9625 13.2188 77.2125 13.2188C80.0667 13.2188 82.0667 13.4896 83.2125 14.0312C84.3792 14.5521 85.1292 14.9583 85.4625 15.25C85.775 15.5208 85.9937 15.8333 86.1187 16.1875C86.3896 17 86.5979 18.0729 86.7437 19.4062C86.8271 20.1771 86.6292 20.6875 86.15 20.9375C85.9 21.0833 85.5042 21.2396 84.9625 21.4062C84.4208 21.5729 83.8792 21.7188 83.3375 21.8438C82.7958 21.9688 82.3896 22.0312 82.1187 22.0312C82.0354 22.0312 81.9417 22.0104 81.8375 21.9688C81.7542 21.9062 81.5979 21.7708 81.3687 21.5625C81.0979 21.2917 80.6292 20.9792 79.9625 20.625C79.3167 20.2708 78.4208 20.0938 77.275 20.0938C76.15 20.0938 75.2021 20.2812 74.4312 20.6562C73.6812 21.0104 73.3062 21.6458 73.3062 22.5625C73.3062 23.5625 73.7854 24.3125 74.7437 24.8125C75.7229 25.3125 77.3271 25.9583 79.5562 26.75C81.3062 27.3542 82.8271 28.0208 84.1187 28.75C85.4312 29.4583 86.4417 30.3958 87.15 31.5625C87.8583 32.7083 88.2125 34.2604 88.2125 36.2188C88.2125 38.7604 87.5146 40.8125 86.1187 42.375C84.7437 43.9167 82.9729 45.0417 80.8062 45.75C78.6604 46.4375 76.4104 46.7812 74.0562 46.7812ZM106.825 46.7812C103.304 46.7812 100.242 46.2188 97.6375 45.0938C95.0333 43.9479 93.0125 42.1771 91.575 39.7812C90.1375 37.3854 89.4187 34.2917 89.4187 30.5C89.4187 24.8125 90.8771 20.5104 93.7937 17.5938C96.7104 14.6771 100.585 13.2188 105.419 13.2188C108.565 13.2188 111.221 13.7812 113.387 14.9062C115.575 16.0312 117.231 17.5833 118.356 19.5625C119.502 21.5417 120.075 23.8021 120.075 26.3438C120.075 28.8229 119.44 30.5521 118.169 31.5312C116.898 32.5104 115.044 33 112.606 33H99.2C99.3667 35.1458 100.148 36.7812 101.544 37.9062C102.96 39.0312 104.877 39.5938 107.294 39.5938C109.21 39.5938 110.742 39.3125 111.887 38.75C113.054 38.1667 113.867 37.7083 114.325 37.375C114.721 37.0833 115.169 36.9479 115.669 36.9688C116.065 36.9688 116.627 37.0521 117.356 37.2188C118.106 37.3646 118.846 37.6458 119.575 38.0625C120.096 38.3333 120.356 38.7083 120.356 39.1875C120.356 39.4583 120.304 39.8438 120.2 40.3438C120.137 40.6354 120.033 41.0625 119.887 41.625C119.742 42.1667 119.554 42.6771 119.325 43.1562C119.2 43.3854 119.002 43.6042 118.731 43.8125C118.315 44.1042 117.637 44.4896 116.7 44.9688C115.783 45.4479 114.523 45.8646 112.919 46.2188C111.315 46.5938 109.283 46.7812 106.825 46.7812ZM99.1375 26.5938H109.325C110.387 26.5938 110.919 26.1042 110.919 25.125C110.919 23.6458 110.45 22.4062 109.512 21.4062C108.596 20.3854 107.21 19.875 105.356 19.875C103.335 19.875 101.846 20.5208 100.887 21.8125C99.95 23.1042 99.3667 24.6979 99.1375 26.5938Z" fill="#999999"/>
</svg>
