<svg width="current" height="current" viewBox="0 0 123 46" fill="none" xmlns="http://www.w3.org/2000/svg">
<path d="M10.2312 43.0938C9.33541 41.4062 8.41875 39.2708 7.48125 36.6875C6.54375 34.0833 5.64791 31.2917 4.79375 28.3125C3.93958 25.3333 3.17916 22.3958 2.5125 19.5C1.84583 16.5833 1.31458 13.9375 0.918747 11.5625C0.543747 9.1875 0.356247 7.33333 0.356247 6C0.356247 5.45833 0.47083 5.03125 0.699997 4.71875C1.17916 4.05208 1.7625 3.36458 2.45 2.65625C3.15833 1.92708 3.99166 1.16667 4.95 0.375C5.2625 0.125 5.55416 0 5.825 0C6.09583 0 6.36666 0.125 6.6375 0.375C7.61666 1.16667 8.45 1.92708 9.1375 2.65625C9.825 3.36458 10.4083 4.05208 10.8875 4.71875C11.1167 5.03125 11.2312 5.48958 11.2312 6.09375V5.96875C11.2312 7.34375 11.4083 9.20833 11.7625 11.5625C12.1375 13.8958 12.6167 16.4583 13.2 19.25C13.8042 22.0208 14.45 24.7604 15.1375 27.4688C15.8458 30.1562 16.5437 32.5521 17.2312 34.6562H17.4187C18.5437 31.8646 19.5958 28.8333 20.575 25.5625C21.5542 22.2917 22.4708 18.9479 23.325 15.5312C24.1792 12.1146 24.9812 8.79167 25.7312 5.5625C25.9604 4.625 26.3458 3.97917 26.8875 3.625C27.45 3.25 28.325 3.0625 29.5125 3.0625H33.2625C34.325 3.0625 35.1167 3.21875 35.6375 3.53125C36.1583 3.84375 36.5333 4.52083 36.7625 5.5625C37.3042 7.97917 37.9187 10.5312 38.6062 13.2188C39.2937 15.9062 40.0021 18.5833 40.7312 21.25C41.4812 23.8958 42.2312 26.375 42.9812 28.6875C43.7521 31 44.4812 32.9896 45.1687 34.6562H45.3562C46.2312 32.6771 47.0125 30.3438 47.7 27.6562C48.4083 24.9688 49.0021 22.2292 49.4812 19.4375C49.9812 16.625 50.3562 14.0208 50.6062 11.625C50.8771 9.22917 51.0125 7.34375 51.0125 5.96875V6.09375C51.0125 5.48958 51.1167 5.03125 51.325 4.71875C52.325 3.34375 53.7 1.89583 55.45 0.375C55.7833 0.125 56.075 0 56.325 0C56.5542 0 56.825 0.125 57.1375 0.375C58.075 1.16667 58.8771 1.92708 59.5437 2.65625C60.2104 3.36458 60.7833 4.05208 61.2625 4.71875C61.4708 5.05208 61.575 5.5 61.575 6.0625C61.575 7.8125 61.3771 9.91667 60.9812 12.375C60.5854 14.8333 60.0437 17.4583 59.3562 20.25C58.6896 23.0208 57.9292 25.7917 57.075 28.5625C56.2417 31.3333 55.3562 33.9271 54.4187 36.3438C53.5021 38.7396 52.5958 40.7708 51.7 42.4375C50.95 43.8333 50.2729 44.7812 49.6687 45.2812C49.0854 45.7604 48.2417 46 47.1375 46H43.2937C42.3562 46 41.5646 45.7917 40.9187 45.375C40.2937 44.9583 39.6375 44.1771 38.95 43.0312C38.4292 42.1562 37.825 40.9271 37.1375 39.3438C36.4708 37.7604 35.7937 36.0417 35.1062 34.1875C34.4396 32.3125 33.8354 30.5 33.2937 28.75C32.7521 27 32.3562 25.5208 32.1062 24.3125C31.8146 22.9375 31.5646 21.6146 31.3562 20.3438C31.1687 19.0521 31.0542 18.0417 31.0125 17.3125H30.7625C30.7208 18.0417 30.5854 19.0521 30.3562 20.3438C30.1479 21.6146 29.8875 22.9375 29.575 24.3125C29.2625 25.6875 28.8458 27.2604 28.325 29.0312C27.8042 30.8021 27.2312 32.5833 26.6062 34.375C25.9812 36.1667 25.3562 37.8229 24.7312 39.3438C24.1062 40.8646 23.5229 42.0729 22.9812 42.9688C22.3771 43.9896 21.7104 44.75 20.9812 45.25C20.2729 45.75 19.2833 46 18.0125 46H14.4812C13.3771 46 12.5437 45.8021 11.9812 45.4062C11.4187 45.0104 10.8354 44.2396 10.2312 43.0938ZM61.575 5.96875V6.09375V6.0625C61.575 6.02083 61.575 5.98958 61.575 5.96875ZM0.356247 5.96875V6V6.09375V5.96875ZM75.375 44.3438C75.375 44.9688 75.2396 45.4062 74.9687 45.6562C74.7187 45.8854 74.2812 46 73.6562 46H67C66.375 46 65.9271 45.8854 65.6562 45.6562C65.4062 45.4062 65.2812 44.9688 65.2812 44.3438V6.1875C65.2812 5.58333 65.3854 5.125 65.5937 4.8125C66.5312 3.4375 67.8437 1.98958 69.5312 0.46875C69.8437 0.21875 70.1146 0.09375 70.3437 0.09375C70.5937 0.09375 70.8542 0.21875 71.125 0.46875C72.0417 1.26042 72.8125 2.02083 73.4375 2.75C74.0625 3.45833 74.6042 4.14583 75.0625 4.8125C75.2708 5.14583 75.375 5.60417 75.375 6.1875V44.3438ZM91.7375 44.3438C91.7375 44.9688 91.6125 45.4062 91.3625 45.6562C91.1333 45.8854 90.7167 46 90.1125 46H83.8312C83.2479 46 82.8312 45.8854 82.5812 45.6562C82.3312 45.4062 82.2062 44.9688 82.2062 44.3438V4.75C82.2062 3.52083 82.4458 2.625 82.925 2.0625C83.4042 1.47917 84.2479 1.1875 85.4562 1.1875H88.3625C89.425 1.1875 90.425 1.33333 91.3625 1.625C92.3208 1.89583 93.3312 2.52083 94.3937 3.5C95.4771 4.47917 96.7271 6 98.1437 8.0625C99.5812 10.1042 101.31 12.8958 103.331 16.4375C105.269 19.8125 106.821 22.5104 107.987 24.5312C109.175 26.5521 110.092 28.0938 110.737 29.1562C111.383 30.2188 111.862 30.9792 112.175 31.4375C112.508 31.8958 112.779 32.2708 112.987 32.5625V6.1875C112.987 5.58333 113.081 5.125 113.269 4.8125C114.165 3.4375 115.404 1.98958 116.987 0.46875C117.3 0.21875 117.56 0.09375 117.769 0.09375C117.998 0.09375 118.248 0.21875 118.519 0.46875C119.373 1.26042 120.092 2.02083 120.675 2.75C121.279 3.45833 121.8 4.14583 122.237 4.8125C122.425 5.14583 122.519 5.60417 122.519 6.1875V43.4062C122.519 44.3438 122.342 45.0104 121.987 45.4062C121.633 45.8021 120.987 46 120.05 46H117.05C116.154 46 115.237 45.8542 114.3 45.5625C113.362 45.25 112.3 44.5625 111.112 43.5C109.925 42.4167 108.519 40.7396 106.894 38.4688C105.269 36.1979 103.31 33.0938 101.019 29.1562C99.0812 25.8021 97.5292 23.1354 96.3625 21.1562C95.2167 19.1771 94.3417 17.6875 93.7375 16.6875C93.1333 15.6667 92.6958 14.9583 92.425 14.5625C92.1542 14.1458 91.925 13.8333 91.7375 13.625V44.3438Z" fill="#AE4CFF"/>
</svg>
