<svg width="current" height="current" viewBox="0 0 988 176" fill="none" xmlns="http://www.w3.org/2000/svg">
<path d="M38.3984 166.789C38.3984 169.133 37.8906 170.773 36.875 171.711C35.9375 172.57 34.2969 173 31.9531 173H6.99219C4.64844 173 2.96875 172.57 1.95312 171.711C1.01562 170.773 0.546875 169.133 0.546875 166.789V23.7031C0.546875 21.4375 0.9375 19.7188 1.71875 18.5469C5.23438 13.3906 10.1562 7.96094 16.4844 2.25781C17.6562 1.32031 18.6719 0.851562 19.5312 0.851562C20.4688 0.851562 21.4453 1.32031 22.4609 2.25781C25.8984 5.22656 28.7891 8.07813 31.1328 10.8125C33.4766 13.4688 35.5078 16.0469 37.2266 18.5469C38.0078 19.7969 38.3984 21.5156 38.3984 23.7031V72.3359H41.0938C50.8594 72.3359 58.7891 71.0078 64.8828 68.3516C70.9766 65.6172 75.6641 61.9844 78.9453 57.4531C82.2266 52.8438 84.4531 47.7266 85.625 42.1016C86.875 36.4766 87.5 30.7344 87.5 24.875V23.7031C87.5 21.4375 87.8906 19.7188 88.6719 18.5469C92.1875 13.3906 97.1094 7.96094 103.438 2.25781C104.609 1.32031 105.625 0.851562 106.484 0.851562C107.422 0.851562 108.398 1.32031 109.414 2.25781C112.852 5.22656 115.742 8.07813 118.086 10.8125C120.43 13.4688 122.461 16.0469 124.18 18.5469C124.961 19.7969 125.352 21.5156 125.352 23.7031V24.875C125.352 31.2031 124.727 37.7656 123.477 44.5625C122.227 51.2812 120 57.6484 116.797 63.6641C113.672 69.6797 109.219 74.8359 103.438 79.1328C97.7344 83.3516 90.3516 86.125 81.2891 87.4531V88.2734C89.4141 90.8516 96.6406 95.1484 102.969 101.164C109.375 107.102 114.883 113.898 119.492 121.555C124.18 129.211 128.008 136.906 130.977 144.641C133.945 152.375 136.055 159.289 137.305 165.383C137.93 168.273 137.93 170.266 137.305 171.359C136.68 172.453 135.195 173 132.852 173H104.141C100.156 173 97.8125 171.164 97.1094 167.492C95.9375 161.555 93.6328 154.875 90.1953 147.453C86.8359 139.953 82.6172 132.727 77.5391 125.773C72.4609 118.82 66.7969 113.078 60.5469 108.547C54.375 104.016 47.8906 101.75 41.0938 101.75H38.3984V166.789ZM200.891 175.93C181.203 175.93 165.617 170.695 154.133 160.227C142.648 149.758 136.906 134.172 136.906 113.469C136.906 92.2188 142.844 76.3594 154.719 65.8906C166.672 55.3438 182.609 50.0703 202.531 50.0703C221.75 50.0703 237.141 55.2656 248.703 65.6562C260.266 75.9688 266.047 91.2031 266.047 111.359C266.047 132.375 260.266 148.391 248.703 159.406C237.141 170.422 221.203 175.93 200.891 175.93ZM202.062 147.57C210.656 147.57 217.141 144.914 221.516 139.602C225.891 134.211 228.078 125.031 228.078 112.062C228.078 99.7188 225.852 91.0469 221.398 86.0469C217.023 80.9688 210.5 78.4297 201.828 78.4297C193.469 78.4297 186.867 81.1641 182.023 86.6328C177.258 92.0234 174.875 100.812 174.875 113C174.875 125.734 177.141 134.68 181.672 139.836C186.281 144.992 193.078 147.57 202.062 147.57ZM327.641 175.812C317.719 175.812 309.477 174.914 302.914 173.117C296.43 171.32 291.195 169.094 287.211 166.438C283.305 163.703 280.297 161.008 278.188 158.352C277.484 157.336 276.859 156.359 276.312 155.422C275.766 154.484 275.375 153.43 275.141 152.258C274.828 150.695 274.516 148.664 274.203 146.164C273.891 143.586 273.852 140.617 274.086 137.258C274.164 135.852 274.438 134.875 274.906 134.328C275.453 133.703 276.352 133.234 277.602 132.922C279.867 132.375 282.797 131.906 286.391 131.516C290.062 131.047 292.68 130.812 294.242 130.812C295.883 130.812 297.211 131.125 298.227 131.75C299.242 132.375 300.453 133.43 301.859 134.914C303.422 136.555 306.117 138.664 309.945 141.242C313.773 143.742 319.672 144.992 327.641 144.992C335.297 144.992 341.078 143.391 344.984 140.188C348.891 136.984 350.844 132.531 350.844 126.828C350.844 123.781 349.906 120.93 348.031 118.273C346.234 115.539 342.914 112.844 338.07 110.188C333.227 107.453 326.312 104.602 317.328 101.633C302.484 96.6328 291.781 90.4219 285.219 83C278.656 75.5781 275.375 65.2656 275.375 52.0625C275.375 41.125 278.031 31.9844 283.344 24.6406C288.656 17.2969 296 11.75 305.375 8C314.75 4.25 325.57 2.375 337.836 2.375C347.289 2.375 355.102 3.50781 361.273 5.77344C367.523 7.96094 372.367 10.4609 375.805 13.2734C379.242 16.0078 381.469 18.2344 382.484 19.9531C383.109 20.9688 383.5 21.75 383.656 22.2969C383.891 22.7656 384.047 23.4297 384.125 24.2891C384.359 26.7109 384.438 29.4063 384.359 32.375C384.281 35.3437 384.008 38.7031 383.539 42.4531C383.305 43.7031 382.875 44.5625 382.25 45.0312C381.703 45.4219 380.844 45.6172 379.672 45.6172C372.094 45.7734 366.234 45.3828 362.094 44.4453C360.453 44.0547 359.359 43.6641 358.812 43.2734C358.266 42.8828 357.562 42.2578 356.703 41.3984C355.453 39.9141 353.461 38.1953 350.727 36.2422C348.07 34.2109 343.773 33.1953 337.836 33.1953C329.633 33.1953 323.812 35.0703 320.375 38.8203C316.938 42.4922 315.219 46.6328 315.219 51.2422C315.219 56.7109 317.758 61.0078 322.836 64.1328C327.914 67.1797 335.922 70.6562 346.859 74.5625C356 77.7656 363.852 81.2422 370.414 84.9922C376.977 88.7422 381.977 93.5469 385.414 99.4062C388.93 105.266 390.688 113 390.688 122.609C390.688 134.562 387.914 144.484 382.367 152.375C376.898 160.266 369.398 166.164 359.867 170.07C350.414 173.898 339.672 175.812 327.641 175.812ZM452.516 175.93C426.422 175.93 413.375 162.375 413.375 135.266V80.3047H400.133C397.789 80.3047 396.148 79.8359 395.211 78.8984C394.352 77.8828 393.922 76.2031 393.922 73.8594V59.4453C393.922 57.1016 394.352 55.4609 395.211 54.5234C396.148 53.5078 397.789 53 400.133 53H413.375V34.1328C413.375 32.2578 413.766 30.8125 414.547 29.7969C417.828 25.5 422.633 20.8516 428.961 15.8516C430.055 15.0703 431.031 14.6797 431.891 14.6797C432.828 14.6797 433.766 15.0703 434.703 15.8516C438.062 18.4297 440.875 20.8516 443.141 23.1172C445.484 25.3828 447.477 27.6094 449.117 29.7969C449.898 30.8125 450.289 32.2578 450.289 34.1328V53H471.031C473.375 53 474.977 53.5078 475.836 54.5234C476.773 55.4609 477.242 57.1016 477.242 59.4453V73.8594C477.242 76.2031 476.773 77.8828 475.836 78.8984C474.977 79.8359 473.375 80.3047 471.031 80.3047H450.289V128.82C450.289 141.32 454.82 147.57 463.883 147.57C465.289 147.57 466.578 147.453 467.75 147.219C468.922 146.906 469.938 146.594 470.797 146.281C472.438 145.656 473.57 145.422 474.195 145.578C474.898 145.734 475.523 146.594 476.07 148.156L482.867 166.32C483.57 168.273 483.102 169.68 481.461 170.539C480.289 171.086 477.438 172.102 472.906 173.586C468.453 175.148 461.656 175.93 452.516 175.93ZM521.609 175.93C510.125 175.93 500.984 172.727 494.188 166.32C487.469 159.836 484.109 150.93 484.109 139.602C484.109 133.742 485.164 128.312 487.273 123.312C489.461 118.234 493.211 113.781 498.523 109.953C503.914 106.047 511.414 102.922 521.023 100.578C530.711 98.2344 543.055 96.8672 558.055 96.4766C558.055 89.3672 556.258 84.25 552.664 81.125C549.148 78 543.836 76.4375 536.727 76.4375C530.32 76.4375 525.086 77.5312 521.023 79.7188C516.961 81.9062 514.422 83.3906 513.406 84.1719C512.312 85.1094 510.984 85.4609 509.422 85.2266C507.312 84.9141 505.047 84.3672 502.625 83.5859C500.281 82.8047 497.742 81.9062 495.008 80.8906C494.617 80.7344 494.188 80.5 493.719 80.1875C493.25 79.7969 492.977 79.25 492.898 78.5469C492.898 78.1562 492.938 77.6875 493.016 77.1406C493.094 76.5156 493.289 75.4219 493.602 73.8594C493.914 72.2969 494.383 70.3828 495.008 68.1172C495.633 65.7734 496.219 63.9766 496.766 62.7266C497.469 61.3984 498.641 60.1484 500.281 58.9766C501.609 57.8828 505.633 56.125 512.352 53.7031C519.07 51.2812 528.797 50.0703 541.531 50.0703C576.609 50.0703 594.148 67.1406 594.148 101.281V167.609C594.148 169.094 593.719 170.383 592.859 171.477C592.078 172.492 590.711 173 588.758 173H571.18C569.93 173 568.797 172.844 567.781 172.531C566.844 172.141 565.945 171.438 565.086 170.422L557.82 161.047H557C553.406 166.281 548.562 170.07 542.469 172.414C536.453 174.758 529.5 175.93 521.609 175.93ZM534.5 148.742C541.688 148.742 547.117 146.906 550.789 143.234C554.461 139.562 556.805 135.773 557.82 131.867V118.859C546.961 118.859 538.797 119.719 533.328 121.438C527.938 123.078 524.344 125.266 522.547 128C520.75 130.656 519.852 133.547 519.852 136.672C519.852 141.203 521.258 144.367 524.07 146.164C526.883 147.883 530.359 148.742 534.5 148.742ZM649.648 75.2656H650.117C655.977 59.0156 666.523 50.8906 681.758 50.8906C683.711 50.8906 685.312 51.0078 686.562 51.2422C687.812 51.3984 688.672 51.5547 689.141 51.7109C690.312 52.1016 690.898 53 690.898 54.4062V82.6484C690.898 85.0703 689.492 85.7344 686.68 84.6406C685.742 84.25 684.375 83.8594 682.578 83.4688C680.859 83 678.438 82.7656 675.312 82.7656C667.266 82.7656 660.977 85.7344 656.445 91.6719C651.914 97.5312 649.648 105.539 649.648 115.695V166.789C649.648 169.133 649.141 170.773 648.125 171.711C647.188 172.57 645.547 173 643.203 173H619.062C616.719 173 615.039 172.57 614.023 171.711C613.086 170.773 612.617 169.133 612.617 166.789V68.5859C612.617 66.7109 613.008 65.2656 613.789 64.25C615.43 62.0625 617.383 59.8359 619.648 57.5703C621.992 55.3047 624.844 52.8828 628.203 50.3047C628.828 49.8359 629.453 49.5234 630.078 49.3672C630.703 49.2109 631.25 49.1328 631.719 49.1328C632.812 49.1328 633.906 49.5234 635 50.3047C641.484 55.3828 646.016 59.7188 648.594 63.3125C649.297 64.25 649.648 65.3438 649.648 66.5938V75.2656ZM750.969 175.93C724.875 175.93 711.828 162.375 711.828 135.266V80.3047H698.586C696.242 80.3047 694.602 79.8359 693.664 78.8984C692.805 77.8828 692.375 76.2031 692.375 73.8594V59.4453C692.375 57.1016 692.805 55.4609 693.664 54.5234C694.602 53.5078 696.242 53 698.586 53H711.828V34.1328C711.828 32.2578 712.219 30.8125 713 29.7969C716.281 25.5 721.086 20.8516 727.414 15.8516C728.508 15.0703 729.484 14.6797 730.344 14.6797C731.281 14.6797 732.219 15.0703 733.156 15.8516C736.516 18.4297 739.328 20.8516 741.594 23.1172C743.938 25.3828 745.93 27.6094 747.57 29.7969C748.352 30.8125 748.742 32.2578 748.742 34.1328V53H769.484C771.828 53 773.43 53.5078 774.289 54.5234C775.227 55.4609 775.695 57.1016 775.695 59.4453V73.8594C775.695 76.2031 775.227 77.8828 774.289 78.8984C773.43 79.8359 771.828 80.3047 769.484 80.3047H748.742V128.82C748.742 141.32 753.273 147.57 762.336 147.57C763.742 147.57 765.031 147.453 766.203 147.219C767.375 146.906 768.391 146.594 769.25 146.281C770.891 145.656 772.023 145.422 772.648 145.578C773.352 145.734 773.977 146.594 774.523 148.156L781.32 166.32C782.023 168.273 781.555 169.68 779.914 170.539C778.742 171.086 775.891 172.102 771.359 173.586C766.906 175.148 760.109 175.93 750.969 175.93ZM845.492 175.93C832.289 175.93 820.805 173.82 811.039 169.602C801.273 165.305 793.695 158.664 788.305 149.68C782.914 140.695 780.219 129.094 780.219 114.875C780.219 93.5469 785.688 77.4141 796.625 66.4766C807.562 55.5391 822.094 50.0703 840.219 50.0703C852.016 50.0703 861.977 52.1797 870.102 56.3984C878.305 60.6172 884.516 66.4375 888.734 73.8594C893.031 81.2812 895.18 89.7578 895.18 99.2891C895.18 108.586 892.797 115.07 888.031 118.742C883.266 122.414 876.312 124.25 867.172 124.25H816.898C817.523 132.297 820.453 138.43 825.688 142.648C831 146.867 838.188 148.977 847.25 148.977C854.438 148.977 860.18 147.922 864.477 145.812C868.852 143.625 871.898 141.906 873.617 140.656C875.102 139.562 876.781 139.055 878.656 139.133C880.141 139.133 882.25 139.445 884.984 140.07C887.797 140.617 890.57 141.672 893.305 143.234C895.258 144.25 896.234 145.656 896.234 147.453C896.234 148.469 896.039 149.914 895.648 151.789C895.414 152.883 895.023 154.484 894.477 156.594C893.93 158.625 893.227 160.539 892.367 162.336C891.898 163.195 891.156 164.016 890.141 164.797C888.578 165.891 886.039 167.336 882.523 169.133C879.086 170.93 874.359 172.492 868.344 173.82C862.328 175.227 854.711 175.93 845.492 175.93ZM816.664 100.227H854.867C858.852 100.227 860.844 98.3906 860.844 94.7188C860.844 89.1719 859.086 84.5234 855.57 80.7734C852.133 76.9453 846.938 75.0312 839.984 75.0312C832.406 75.0312 826.82 77.4531 823.227 82.2969C819.711 87.1406 817.523 93.1172 816.664 100.227ZM945.992 75.2656H946.461C952.32 59.0156 962.867 50.8906 978.102 50.8906C980.055 50.8906 981.656 51.0078 982.906 51.2422C984.156 51.3984 985.016 51.5547 985.484 51.7109C986.656 52.1016 987.242 53 987.242 54.4062V82.6484C987.242 85.0703 985.836 85.7344 983.023 84.6406C982.086 84.25 980.719 83.8594 978.922 83.4688C977.203 83 974.781 82.7656 971.656 82.7656C963.609 82.7656 957.32 85.7344 952.789 91.6719C948.258 97.5312 945.992 105.539 945.992 115.695V166.789C945.992 169.133 945.484 170.773 944.469 171.711C943.531 172.57 941.891 173 939.547 173H915.406C913.062 173 911.383 172.57 910.367 171.711C909.43 170.773 908.961 169.133 908.961 166.789V68.5859C908.961 66.7109 909.352 65.2656 910.133 64.25C911.773 62.0625 913.727 59.8359 915.992 57.5703C918.336 55.3047 921.188 52.8828 924.547 50.3047C925.172 49.8359 925.797 49.5234 926.422 49.3672C927.047 49.2109 927.594 49.1328 928.062 49.1328C929.156 49.1328 930.25 49.5234 931.344 50.3047C937.828 55.3828 942.359 59.7188 944.938 63.3125C945.641 64.25 945.992 65.3438 945.992 66.5938V75.2656Z" fill="#3B3B3B"/>
</svg>
