<svg width="current" height="current" viewBox="0 0 241 241" fill="none" xmlns="http://www.w3.org/2000/svg">
<path d="M0 38.4C0 24.9587 0 18.2381 2.61584 13.1042C4.9168 8.58834 8.58834 4.9168 13.1042 2.61584C18.2381 0 24.9587 0 38.4 0H79.4C135.965 0 164.248 0 185.853 11.0083C204.857 20.6916 220.308 36.1426 229.992 55.147C241 76.752 241 105.035 241 161.6V241H38.4C24.9587 241 18.2381 241 13.1042 238.384C8.58834 236.083 4.9168 232.412 2.61584 227.896C0 222.762 0 216.041 0 202.6V38.4Z" fill="#D097FF"/>
<path d="M95.9766 208.789C95.9766 211.133 95.4688 212.773 94.4531 213.711C93.5156 214.57 91.875 215 89.5312 215H64.5703C62.2266 215 60.5469 214.57 59.5312 213.711C58.5938 212.773 58.125 211.133 58.125 208.789V65.7031C58.125 63.4375 58.5156 61.7188 59.2969 60.5469C62.8125 55.3906 67.7344 49.9609 74.0625 44.2578C75.2344 43.3203 76.25 42.8516 77.1094 42.8516C78.0469 42.8516 79.0234 43.3203 80.0391 44.2578C83.4766 47.2266 86.3672 50.0781 88.7109 52.8125C91.0547 55.4688 93.0859 58.0469 94.8047 60.5469C95.5859 61.7969 95.9766 63.5156 95.9766 65.7031V114.336H98.6719C108.438 114.336 116.367 113.008 122.461 110.352C128.555 107.617 133.242 103.984 136.523 99.4531C139.805 94.8438 142.031 89.7266 143.203 84.1016C144.453 78.4766 145.078 72.7344 145.078 66.875V65.7031C145.078 63.4375 145.469 61.7188 146.25 60.5469C149.766 55.3906 154.688 49.9609 161.016 44.2578C162.188 43.3203 163.203 42.8516 164.062 42.8516C165 42.8516 165.977 43.3203 166.992 44.2578C170.43 47.2266 173.32 50.0781 175.664 52.8125C178.008 55.4688 180.039 58.0469 181.758 60.5469C182.539 61.7969 182.93 63.5156 182.93 65.7031V66.875C182.93 73.2031 182.305 79.7656 181.055 86.5625C179.805 93.2812 177.578 99.6484 174.375 105.664C171.25 111.68 166.797 116.836 161.016 121.133C155.312 125.352 147.93 128.125 138.867 129.453V130.273C146.992 132.852 154.219 137.148 160.547 143.164C166.953 149.102 172.461 155.898 177.07 163.555C181.758 171.211 185.586 178.906 188.555 186.641C191.523 194.375 193.633 201.289 194.883 207.383C195.508 210.273 195.508 212.266 194.883 213.359C194.258 214.453 192.773 215 190.43 215H161.719C157.734 215 155.391 213.164 154.688 209.492C153.516 203.555 151.211 196.875 147.773 189.453C144.414 181.953 140.195 174.727 135.117 167.773C130.039 160.82 124.375 155.078 118.125 150.547C111.953 146.016 105.469 143.75 98.6719 143.75H95.9766V208.789Z" fill="white"/>
</svg>
